<svg width="126" height="105" viewBox="0 0 126 105" fill="none" xmlns="http://www.w3.org/2000/svg">
<g filter="url(#filter0_d_18_146)">
<path fill-rule="evenodd" clip-rule="evenodd" d="M59.2001 16.5693C66.6618 15.9324 74.2254 15.1839 81.0502 18.2758C88.9593 21.8589 96.8338 27.048 100.116 35.1059C103.493 43.3961 101.935 52.9763 98.5615 61.2678C95.3506 69.1604 89.7365 76.4516 81.9272 79.8152C74.7742 82.8962 66.9359 79.0954 59.2001 78.2218C52.5638 77.4723 46.0436 77.7197 39.9101 75.0702C32.2859 71.7767 23.8437 68.5751 19.9036 61.2467C15.679 53.3891 14.4209 43.1195 18.4531 35.161C22.3615 27.4467 32.0418 25.3721 39.8948 21.789C46.1135 18.9516 52.3927 17.1505 59.2001 16.5693Z" fill="url(#paint0_radial_18_146)"/>
</g>
<path d="M55.0844 64V48.9847H51V43.5784H55.0844V38.9608C55.0844 35.3322 57.4971 32 63.0565 32C65.3074 32 66.9718 32.2098 66.9718 32.2098L66.8406 37.2583C66.8406 37.2583 65.1432 37.2422 63.2909 37.2422C61.2861 37.2422 60.9649 38.1403 60.9649 39.6309V43.5784H67L66.7374 48.9847H60.9649V64H55.0844Z" fill="white"/>
<defs>
<filter id="filter0_d_18_146" x="0" y="0" width="126" height="105" filterUnits="userSpaceOnUse" color-interpolation-filters="sRGB">
<feFlood flood-opacity="0" result="BackgroundImageFix"/>
<feColorMatrix in="SourceAlpha" type="matrix" values="0 0 0 0 0 0 0 0 0 0 0 0 0 0 0 0 0 0 127 0" result="hardAlpha"/>
<feOffset dx="4" dy="4"/>
<feGaussianBlur stdDeviation="10"/>
<feComposite in2="hardAlpha" operator="out"/>
<feColorMatrix type="matrix" values="0 0 0 0 0.294118 0 0 0 0 0.164706 0 0 0 0 0.878431 0 0 0 1 0"/>
<feBlend mode="normal" in2="BackgroundImageFix" result="effect1_dropShadow_18_146"/>
<feBlend mode="normal" in="SourceGraphic" in2="effect1_dropShadow_18_146" result="shape"/>
</filter>
<radialGradient id="paint0_radial_18_146" cx="0" cy="0" r="1" gradientUnits="userSpaceOnUse" gradientTransform="translate(59 48.5) rotate(90) scale(32.5 43)">
<stop stop-color="#5D46F9"/>
<stop offset="1" stop-color="#C58CFE"/>
</radialGradient>
</defs>
</svg>
