<svg width="114" height="108" viewBox="0 0 114 108" fill="none" xmlns="http://www.w3.org/2000/svg">
<g filter="url(#filter0_d_18_149)">
<path fill-rule="evenodd" clip-rule="evenodd" d="M48.0082 16.0005C57.8811 15.9433 66.7783 20.444 73.7852 27.5272C82.2542 36.0885 91.8078 46.1897 89.7055 58.1517C87.5408 70.469 75.7403 78.4624 64.1192 82.528C54.0808 86.0398 43.5157 82.8251 34.2502 77.5522C25.8059 72.7466 19.1885 65.2622 16.9431 55.6805C14.6691 45.9773 16.4897 35.6241 22.5965 27.8239C28.7043 20.0222 38.2103 16.0573 48.0082 16.0005Z" fill="url(#paint0_radial_18_149)"/>
</g>
<path fill-rule="evenodd" clip-rule="evenodd" d="M46.8159 35.09C48.4155 35.0164 48.9255 35 53 35C57.0745 35 57.5845 35.0177 59.1827 35.09C60.7809 35.1623 61.8718 35.4173 62.8264 35.7868C63.8259 36.1645 64.7327 36.755 65.4827 37.5186C66.2464 38.2673 66.8355 39.1727 67.2118 40.1736C67.5827 41.1282 67.8364 42.2191 67.91 43.8145C67.9836 45.4168 68 45.9268 68 50C68 54.0745 67.9823 54.5845 67.91 56.1841C67.8377 57.7795 67.5827 58.8705 67.2118 59.825C66.8354 60.826 66.2454 61.733 65.4827 62.4827C64.7327 63.2464 63.8259 63.8355 62.8264 64.2118C61.8718 64.5827 60.7809 64.8364 59.1855 64.91C57.5845 64.9836 57.0745 65 53 65C48.9255 65 48.4155 64.9823 46.8159 64.91C45.2205 64.8377 44.1295 64.5827 43.175 64.2118C42.174 63.8354 41.267 63.2453 40.5173 62.4827C39.7542 61.7336 39.1636 60.8271 38.7868 59.8264C38.4173 58.8718 38.1636 57.7809 38.09 56.1855C38.0164 54.5832 38 54.0732 38 50C38 45.9255 38.0177 45.4155 38.09 43.8173C38.1623 42.2191 38.4173 41.1282 38.7868 40.1736C39.1642 39.1728 39.7552 38.2663 40.5186 37.5173C41.2673 36.7543 42.1734 36.1638 43.1736 35.7868C44.1282 35.4173 45.2191 35.1636 46.8145 35.09H46.8159ZM59.0614 37.79C57.4795 37.7177 57.005 37.7027 53 37.7027C48.995 37.7027 48.5205 37.7177 46.9386 37.79C45.4755 37.8568 44.6818 38.1009 44.1527 38.3068C43.4532 38.5795 42.9527 38.9027 42.4277 39.4277C41.9301 39.9119 41.5471 40.5013 41.3068 41.1527C41.1009 41.6818 40.8568 42.4755 40.79 43.9386C40.7177 45.5205 40.7027 45.995 40.7027 50C40.7027 54.005 40.7177 54.4795 40.79 56.0614C40.8568 57.5245 41.1009 58.3182 41.3068 58.8473C41.5468 59.4977 41.93 60.0882 42.4277 60.5723C42.9118 61.07 43.5023 61.4532 44.1527 61.6932C44.6818 61.8991 45.4755 62.1432 46.9386 62.21C48.5205 62.2823 48.9936 62.2973 53 62.2973C57.0064 62.2973 57.4795 62.2823 59.0614 62.21C60.5245 62.1432 61.3182 61.8991 61.8473 61.6932C62.5468 61.4205 63.0473 61.0973 63.5723 60.5723C64.07 60.0882 64.4532 59.4977 64.6932 58.8473C64.8991 58.3182 65.1432 57.5245 65.21 56.0614C65.2823 54.4795 65.2973 54.005 65.2973 50C65.2973 45.995 65.2823 45.5205 65.21 43.9386C65.1432 42.4755 64.8991 41.6818 64.6932 41.1527C64.4205 40.4532 64.0973 39.9527 63.5723 39.4277C63.0881 38.9301 62.4987 38.5471 61.8473 38.3068C61.3182 38.1009 60.5245 37.8568 59.0614 37.79V37.79ZM51.0841 54.6241C52.1541 55.0695 53.3455 55.1296 54.4549 54.7942C55.5643 54.4587 56.5228 53.7485 57.1667 52.7849C57.8107 51.8212 58.1001 50.6639 57.9855 49.5106C57.871 48.3573 57.3596 47.2795 56.5386 46.4614C56.0153 45.9384 55.3826 45.5379 54.6859 45.2888C53.9893 45.0397 53.246 44.9482 52.5098 45.0208C51.7735 45.0935 51.0625 45.3284 50.4279 45.7088C49.7933 46.0892 49.251 46.6056 48.84 47.2207C48.4289 47.8359 48.1593 48.5345 48.0507 49.2663C47.9421 49.9981 47.997 50.7449 48.2116 51.453C48.4263 52.161 48.7952 52.8126 49.2919 53.361C49.7886 53.9093 50.4007 54.3407 51.0841 54.6241ZM47.5482 44.5482C48.2641 43.8322 49.1141 43.2643 50.0495 42.8769C50.9849 42.4894 51.9875 42.29 53 42.29C54.0125 42.29 55.0151 42.4894 55.9505 42.8769C56.8859 43.2643 57.7359 43.8322 58.4518 44.5482C59.1678 45.2641 59.7357 46.1141 60.1231 47.0495C60.5106 47.9849 60.71 48.9875 60.71 50C60.71 51.0125 60.5106 52.0151 60.1231 52.9505C59.7357 53.8859 59.1678 54.7359 58.4518 55.4518C57.0059 56.8977 55.0448 57.71 53 57.71C50.9552 57.71 48.9941 56.8977 47.5482 55.4518C46.1023 54.0059 45.29 52.0448 45.29 50C45.29 47.9552 46.1023 45.9941 47.5482 44.5482V44.5482ZM62.42 43.4382C62.5974 43.2708 62.7394 43.0696 62.8377 42.8463C62.9359 42.6231 62.9884 42.3824 62.9919 42.1385C62.9955 41.8947 62.9501 41.6526 62.8584 41.4266C62.7667 41.2006 62.6306 40.9952 62.4581 40.8228C62.2857 40.6503 62.0804 40.5142 61.8544 40.4225C61.6283 40.3308 61.3862 40.2854 61.1424 40.289C60.8985 40.2925 60.6578 40.345 60.4346 40.4432C60.2113 40.5415 60.0101 40.6835 59.8427 40.8609C59.5172 41.2059 59.339 41.6643 59.346 42.1385C59.3529 42.6128 59.5444 43.0657 59.8798 43.4011C60.2152 43.7366 60.6681 43.928 61.1424 43.935C61.6167 43.9419 62.075 43.7637 62.42 43.4382V43.4382Z" fill="white"/>
<defs>
<filter id="filter0_d_18_149" x="0" y="0" width="114" height="108" filterUnits="userSpaceOnUse" color-interpolation-filters="sRGB">
<feFlood flood-opacity="0" result="BackgroundImageFix"/>
<feColorMatrix in="SourceAlpha" type="matrix" values="0 0 0 0 0 0 0 0 0 0 0 0 0 0 0 0 0 0 127 0" result="hardAlpha"/>
<feOffset dx="4" dy="4"/>
<feGaussianBlur stdDeviation="10"/>
<feComposite in2="hardAlpha" operator="out"/>
<feColorMatrix type="matrix" values="0 0 0 0 0.294118 0 0 0 0 0.164706 0 0 0 0 0.878431 0 0 0 1 0"/>
<feBlend mode="normal" in2="BackgroundImageFix" result="effect1_dropShadow_18_149"/>
<feBlend mode="normal" in="SourceGraphic" in2="effect1_dropShadow_18_149" result="shape"/>
</filter>
<radialGradient id="paint0_radial_18_149" cx="0" cy="0" r="1" gradientUnits="userSpaceOnUse" gradientTransform="translate(53 50) rotate(90) scale(34 37)">
<stop stop-color="#5B45F9"/>
<stop offset="1" stop-color="#D899FF"/>
</radialGradient>
</defs>
</svg>
