<svg width="738" height="81" viewBox="0 0 738 81" fill="none" xmlns="http://www.w3.org/2000/svg">
<path d="M59.027 6.04454C59.027 4.62021 57.6026 3.30544 55.9592 3.30544H16.5163C14.8728 3.30544 13.4485 4.62021 13.4485 6.04454V52.6091C13.4485 54.0334 12.1337 55.2386 10.4903 55.2386H3.69731C2.05385 55.2386 0.629527 56.5534 0.629527 57.9777V77.3705C0.629527 78.7948 2.05385 80 3.69731 80H43.1402C44.7837 80 46.208 78.7948 46.208 77.3705V30.8059C46.208 29.3816 47.5228 28.1764 49.1662 28.1764H55.9592C57.6026 28.1764 59.027 26.8616 59.027 25.4373V6.04454ZM113.484 3.30544C111.95 3.30544 110.744 4.51065 110.744 6.04454V17.987C110.744 19.4113 109.539 20.7261 108.005 20.7261H95.4055C93.9812 20.7261 92.6664 19.4113 92.6664 17.987V6.04454C92.6664 4.51065 91.4612 3.30544 90.0369 3.30544H72.0684C70.6441 3.30544 69.3294 4.51065 69.3294 6.04454V77.3705C69.3294 78.7948 70.6441 80 72.0684 80H90.0369C91.4612 80 92.6664 78.7948 92.6664 77.3705V65.428C92.6664 63.8941 93.9812 62.6889 95.4055 62.6889H108.005C109.539 62.6889 110.744 63.8941 110.744 65.428V77.3705C110.744 78.7948 111.95 80 113.484 80H131.342C132.876 80 134.081 78.7948 134.081 77.3705V6.04454C134.081 4.51065 132.876 3.30544 131.342 3.30544H113.484ZM182.008 18.7539C182.008 28.286 174.229 36.065 164.587 36.065C155.055 36.065 147.276 28.286 147.276 18.7539C147.276 9.11232 155.055 1.3333 164.587 1.3333C174.229 1.3333 182.008 9.11232 182.008 18.7539ZM152.097 42.7484C150.673 42.7484 149.467 44.0631 149.467 45.4874V77.3705C149.467 78.7948 150.673 80 152.097 80H176.311C177.735 80 178.94 78.7948 178.94 77.3705V45.4874C178.94 44.0631 177.735 42.7484 176.311 42.7484H152.097ZM233.938 28.1764C235.472 28.1764 236.677 26.8616 236.677 25.4373V6.04454C236.677 4.51065 235.472 3.30544 233.938 3.30544H197.891C196.467 3.30544 195.262 4.51065 195.262 6.04454V77.48C195.262 78.9044 196.467 80.1096 197.891 80.1096H222.324C223.748 80.1096 225.063 78.9044 225.063 77.48V59.6212C225.063 58.1968 226.268 56.9916 227.692 56.9916H233.938C235.472 56.9916 236.677 55.6769 236.677 54.2525V40.4475C236.677 38.9136 235.472 37.7084 233.938 37.7084H227.692C226.268 37.7084 225.063 36.5032 225.063 34.9693V30.8059C225.063 29.3816 226.268 28.1764 227.692 28.1764H233.938ZM300.061 6.04454C300.061 4.62021 298.856 3.30544 297.431 3.30544H249.771C248.347 3.30544 247.142 4.62021 247.142 6.04454V25.4373C247.142 26.8616 248.347 28.0668 249.771 28.0668H256.016C257.55 28.0668 258.755 29.272 258.755 30.8059V77.2609C258.755 78.7948 259.961 80 261.495 80H285.708C287.242 80 288.447 78.7948 288.447 77.2609V30.8059C288.447 29.272 289.652 28.0668 291.186 28.0668H297.431C298.856 28.0668 300.061 26.8616 300.061 25.4373V6.04454ZM396.037 54.9099C400.967 54.9099 403.049 51.2943 400.529 47.0213L376.644 4.40108C374.234 0.0185375 370.29 0.0185375 367.77 4.40108L343.885 47.0213C341.474 51.2943 343.556 54.9099 348.486 54.9099H396.037ZM395.051 67.4002C395.051 65.8663 393.846 64.6611 392.312 64.6611H352.102C350.568 64.6611 349.363 65.8663 349.363 67.4002V77.3705C349.363 78.7948 350.568 80 352.102 80H392.312C393.846 80 395.051 78.7948 395.051 77.3705V67.4002ZM440.403 3.41501H414.656C413.232 3.41501 412.026 4.62021 412.026 6.04454V77.3705C412.026 78.7948 413.232 80 414.656 80H440.403C441.937 80 443.143 78.7948 443.143 77.3705V59.2925C458.591 59.2925 471.081 46.8022 471.081 31.3537C471.081 15.9053 458.591 3.41501 443.143 3.41501H440.403ZM448.182 31.2442C448.182 35.0789 445.115 38.1467 441.28 38.1467C437.445 38.1467 434.377 35.0789 434.377 31.2442C434.377 27.4094 437.445 24.3417 441.28 24.3417C445.115 24.3417 448.182 27.4094 448.182 31.2442ZM510.002 3.41501H484.255C482.83 3.41501 481.625 4.62021 481.625 6.04454V77.3705C481.625 78.7948 482.83 80 484.255 80H510.002C511.536 80 512.741 78.7948 512.741 77.3705V59.2925C528.19 59.2925 540.68 46.8022 540.68 31.3537C540.68 15.9053 528.19 3.41501 512.741 3.41501H510.002ZM517.781 31.2442C517.781 35.0789 514.713 38.1467 510.879 38.1467C507.044 38.1467 503.976 35.0789 503.976 31.2442C503.976 27.4094 507.044 24.3417 510.879 24.3417C514.713 24.3417 517.781 27.4094 517.781 31.2442ZM595.597 33.1068C597.131 33.1068 598.336 31.9016 598.336 30.3677V6.04454C598.336 4.62021 597.131 3.30544 595.597 3.30544H553.853C552.429 3.30544 551.224 4.62021 551.224 6.04454V77.3705C551.224 78.7948 552.429 80 553.853 80H595.597C597.131 80 598.336 78.7948 598.336 77.3705V53.0473C598.336 51.5135 597.131 50.3082 595.597 50.3082H583.655C582.121 50.3082 580.915 49.1031 580.915 47.5692V35.8458C580.915 34.312 582.121 33.1068 583.655 33.1068H595.597ZM644.928 78.0279C645.914 79.1235 646.9 80 649.42 80H666.183C667.717 80 668.922 78.7948 668.922 77.2609V6.04454C668.922 4.62021 667.717 3.30544 666.183 3.30544H649.42C647.886 3.30544 646.681 4.62021 646.681 6.04454V14.5905C646.681 16.0148 644.709 16.4531 643.723 15.2479L635.615 5.38715C634.629 4.18195 633.643 3.30544 631.013 3.30544H614.25C612.826 3.30544 611.621 4.62021 611.621 6.04454V77.2609C611.621 78.7948 612.826 80 614.25 80H631.123C632.547 80 633.862 78.7948 633.862 77.2609V68.8245C633.862 67.2906 635.834 66.9619 636.711 68.0576L644.928 78.0279ZM737.731 6.04454C737.731 4.62021 736.307 3.30544 734.663 3.30544H695.22C693.577 3.30544 692.152 4.62021 692.152 6.04454V52.6091C692.152 54.0334 690.838 55.2386 689.194 55.2386H682.401C680.758 55.2386 679.334 56.5534 679.334 57.9777V77.3705C679.334 78.7948 680.758 80 682.401 80H721.844C723.488 80 724.912 78.7948 724.912 77.3705V30.8059C724.912 29.3816 726.227 28.1764 727.87 28.1764H734.663C736.307 28.1764 737.731 26.8616 737.731 25.4373V6.04454Z" fill="white"/>
</svg>
