<svg width="123" height="116" viewBox="0 0 123 116" fill="none" xmlns="http://www.w3.org/2000/svg">
<g filter="url(#filter0_d_18_152)">
<path fill-rule="evenodd" clip-rule="evenodd" d="M55.7638 22.2347C63.2129 20.2008 70.1512 14.5994 77.677 16.3257C85.8304 18.1959 93.4596 24.0357 96.9156 31.6742C100.37 39.3088 99.2157 48.6558 95.7583 56.289C92.6551 63.1401 84.4332 65.4997 79.1669 70.8596C74.3627 75.7492 72.2195 82.9732 66.2463 86.3253C59.5335 90.0925 50.801 94.2486 44.0374 90.5742C37.0044 86.7534 39.4541 75.3022 34.4446 69.0486C29.7428 63.1791 18.7031 63.3795 16.4897 56.1851C14.3345 49.1802 19.7212 41.8213 24.3127 36.1172C28.3099 31.1516 34.5526 29.0809 40.3768 26.5101C45.3488 24.3154 50.5224 23.6658 55.7638 22.2347Z" fill="url(#paint0_radial_18_152)"/>
</g>
<path d="M76.443 43.5616C75.3235 44.0576 74.1209 44.3928 72.8565 44.5443C74.1611 43.7637 75.1371 42.5352 75.6024 41.0879C74.3767 41.8159 73.0353 42.3283 71.6365 42.6029C70.6958 41.5985 69.4498 40.9328 68.092 40.7091C66.7341 40.4854 65.3404 40.7162 64.1272 41.3658C62.9141 42.0153 61.9493 43.0472 61.3826 44.3013C60.816 45.5553 60.6792 46.9614 60.9936 48.3011C58.5101 48.1764 56.0806 47.5309 53.8627 46.4065C51.6448 45.2821 49.6882 43.7039 48.1197 41.7744C47.5834 42.6995 47.2751 43.7721 47.2751 44.9144C47.2745 45.9427 47.5277 46.9553 48.0123 47.8623C48.4969 48.7693 49.1979 49.5427 50.0531 50.1138C49.0613 50.0823 48.0914 49.8143 47.2241 49.3322V49.4126C47.224 50.8549 47.7229 52.2528 48.6362 53.3691C49.5494 54.4855 50.8208 55.2515 52.2345 55.5371C51.3144 55.7861 50.3498 55.8228 49.4135 55.6444C49.8124 56.8854 50.5894 57.9706 51.6357 58.7481C52.6819 59.5256 53.9452 59.9565 55.2485 59.9804C53.036 61.7172 50.3037 62.6593 47.4909 62.6552C46.9927 62.6553 46.4948 62.6262 46 62.568C48.8551 64.4038 52.1786 65.378 55.5729 65.3742C67.0632 65.3742 73.3446 55.8576 73.3446 47.6039C73.3446 47.3358 73.3379 47.0649 73.3258 46.7968C74.5476 45.9132 75.6023 44.8191 76.4404 43.5656L76.443 43.5616V43.5616Z" fill="white"/>
<defs>
<filter id="filter0_d_18_152" x="0" y="0" width="123" height="116" filterUnits="userSpaceOnUse" color-interpolation-filters="sRGB">
<feFlood flood-opacity="0" result="BackgroundImageFix"/>
<feColorMatrix in="SourceAlpha" type="matrix" values="0 0 0 0 0 0 0 0 0 0 0 0 0 0 0 0 0 0 127 0" result="hardAlpha"/>
<feOffset dx="4" dy="4"/>
<feGaussianBlur stdDeviation="10"/>
<feComposite in2="hardAlpha" operator="out"/>
<feColorMatrix type="matrix" values="0 0 0 0 0.294118 0 0 0 0 0.164706 0 0 0 0 0.878431 0 0 0 1 0"/>
<feBlend mode="normal" in2="BackgroundImageFix" result="effect1_dropShadow_18_152"/>
<feBlend mode="normal" in="SourceGraphic" in2="effect1_dropShadow_18_152" result="shape"/>
</filter>
<radialGradient id="paint0_radial_18_152" cx="0" cy="0" r="1" gradientUnits="userSpaceOnUse" gradientTransform="translate(57.5 54) rotate(90) scale(38 41.5)">
<stop stop-color="#5C59FF"/>
<stop offset="1" stop-color="#BC86FE"/>
</radialGradient>
</defs>
</svg>
